<svg xmlns="http://www.w3.org/2000/svg" xmlns:xlink="http://www.w3.org/1999/xlink" width="500" zoomAndPan="magnify" viewBox="0 0 375 374.999991" height="500" preserveAspectRatio="xMidYMid meet" version="1.0"><defs><clipPath id="id1"><path d="M 19.339844 19.339844 L 355.339844 19.339844 L 355.339844 355.339844 L 19.339844 355.339844 Z M 19.339844 19.339844 " clip-rule="nonzero"/></clipPath><clipPath id="id2"><path d="M 63 57.972656 L 314 57.972656 L 314 299.957031 L 63 299.957031 Z M 63 57.972656 " clip-rule="nonzero"/></clipPath><clipPath id="id3"><path d="M 303 116 L 313.933594 116 L 313.933594 162 L 303 162 Z M 303 116 " clip-rule="nonzero"/></clipPath><clipPath id="id4"><path d="M 133.546875 116 L 145 116 L 145 162 L 133.546875 162 Z M 133.546875 116 " clip-rule="nonzero"/></clipPath><clipPath id="id5"><path d="M 138 110.210938 L 310 110.210938 L 310 167.410156 L 138 167.410156 Z M 138 110.210938 " clip-rule="nonzero"/></clipPath></defs><g clip-path="url(#id1)"><path fill="#ffffff" d="M 355.339844 187.339844 C 355.339844 190.089844 355.273438 192.835938 355.136719 195.582031 C 355.003906 198.328125 354.800781 201.070312 354.53125 203.808594 C 354.261719 206.542969 353.925781 209.269531 353.523438 211.992188 C 353.117188 214.710938 352.648438 217.417969 352.113281 220.117188 C 351.574219 222.8125 350.972656 225.492188 350.304688 228.160156 C 349.636719 230.828125 348.90625 233.476562 348.105469 236.109375 C 347.308594 238.738281 346.445312 241.347656 345.519531 243.9375 C 344.59375 246.527344 343.605469 249.089844 342.550781 251.632812 C 341.5 254.171875 340.386719 256.683594 339.210938 259.167969 C 338.035156 261.65625 336.800781 264.109375 335.503906 266.535156 C 334.207031 268.960938 332.851562 271.351562 331.4375 273.710938 C 330.023438 276.066406 328.554688 278.390625 327.027344 280.675781 C 325.5 282.960938 323.917969 285.210938 322.277344 287.417969 C 320.640625 289.625 318.949219 291.792969 317.207031 293.917969 C 315.460938 296.042969 313.667969 298.125 311.820312 300.164062 C 309.972656 302.199219 308.078125 304.191406 306.132812 306.132812 C 304.191406 308.078125 302.199219 309.972656 300.164062 311.820312 C 298.125 313.667969 296.042969 315.460938 293.917969 317.207031 C 291.792969 318.949219 289.625 320.640625 287.417969 322.277344 C 285.210938 323.917969 282.960938 325.5 280.675781 327.027344 C 278.390625 328.554688 276.066406 330.023438 273.710938 331.4375 C 271.351562 332.851562 268.960938 334.207031 266.535156 335.503906 C 264.109375 336.800781 261.65625 338.035156 259.167969 339.210938 C 256.683594 340.386719 254.171875 341.5 251.632812 342.550781 C 249.089844 343.605469 246.527344 344.59375 243.9375 345.519531 C 241.347656 346.445312 238.738281 347.308594 236.109375 348.105469 C 233.476562 348.90625 230.828125 349.636719 228.160156 350.304688 C 225.492188 350.972656 222.8125 351.574219 220.117188 352.113281 C 217.417969 352.648438 214.710938 353.117188 211.992188 353.523438 C 209.269531 353.925781 206.542969 354.261719 203.808594 354.53125 C 201.070312 354.800781 198.328125 355.003906 195.582031 355.136719 C 192.835938 355.273438 190.089844 355.339844 187.339844 355.339844 C 184.589844 355.339844 181.84375 355.273438 179.097656 355.136719 C 176.351562 355.003906 173.609375 354.800781 170.875 354.53125 C 168.136719 354.261719 165.410156 353.925781 162.691406 353.523438 C 159.96875 353.117188 157.261719 352.648438 154.566406 352.113281 C 151.867188 351.574219 149.1875 350.972656 146.519531 350.304688 C 143.851562 349.636719 141.203125 348.90625 138.574219 348.105469 C 135.941406 347.308594 133.332031 346.445312 130.742188 345.519531 C 128.152344 344.59375 125.589844 343.605469 123.050781 342.550781 C 120.507812 341.5 117.996094 340.386719 115.511719 339.210938 C 113.027344 338.035156 110.570312 336.800781 108.144531 335.503906 C 105.722656 334.207031 103.328125 332.851562 100.972656 331.4375 C 98.613281 330.023438 96.289062 328.554688 94.003906 327.027344 C 91.71875 325.5 89.472656 323.917969 87.261719 322.277344 C 85.054688 320.640625 82.886719 318.949219 80.761719 317.207031 C 78.636719 315.460938 76.554688 313.667969 74.519531 311.820312 C 72.480469 309.972656 70.492188 308.078125 68.546875 306.132812 C 66.601562 304.191406 64.707031 302.199219 62.859375 300.164062 C 61.015625 298.125 59.21875 296.042969 57.476562 293.917969 C 55.730469 291.792969 54.039062 289.625 52.402344 287.417969 C 50.765625 285.210938 49.179688 282.960938 47.652344 280.675781 C 46.125 278.390625 44.65625 276.066406 43.242188 273.710938 C 41.828125 271.351562 40.472656 268.960938 39.175781 266.535156 C 37.882812 264.109375 36.644531 261.65625 35.46875 259.167969 C 34.292969 256.683594 33.179688 254.171875 32.128906 251.632812 C 31.078125 249.089844 30.085938 246.527344 29.160156 243.9375 C 28.234375 241.347656 27.371094 238.738281 26.574219 236.109375 C 25.777344 233.476562 25.042969 230.828125 24.375 228.160156 C 23.707031 225.492188 23.105469 222.8125 22.570312 220.117188 C 22.03125 217.417969 21.5625 214.710938 21.160156 211.992188 C 20.753906 209.269531 20.417969 206.542969 20.148438 203.808594 C 19.878906 201.070312 19.675781 198.328125 19.542969 195.582031 C 19.40625 192.835938 19.339844 190.089844 19.339844 187.339844 C 19.339844 184.589844 19.40625 181.84375 19.542969 179.097656 C 19.675781 176.351562 19.878906 173.609375 20.148438 170.875 C 20.417969 168.136719 20.753906 165.410156 21.160156 162.691406 C 21.5625 159.96875 22.03125 157.261719 22.570312 154.566406 C 23.105469 151.867188 23.707031 149.1875 24.375 146.519531 C 25.042969 143.851562 25.777344 141.203125 26.574219 138.574219 C 27.371094 135.941406 28.234375 133.332031 29.160156 130.742188 C 30.085938 128.152344 31.078125 125.589844 32.128906 123.050781 C 33.179688 120.507812 34.292969 117.996094 35.46875 115.511719 C 36.644531 113.027344 37.882812 110.570312 39.175781 108.144531 C 40.472656 105.722656 41.828125 103.328125 43.242188 100.972656 C 44.65625 98.613281 46.125 96.289062 47.652344 94.003906 C 49.179688 91.71875 50.765625 89.472656 52.402344 87.261719 C 54.039062 85.054688 55.730469 82.886719 57.476562 80.761719 C 59.21875 78.636719 61.015625 76.554688 62.859375 74.519531 C 64.707031 72.480469 66.601562 70.492188 68.546875 68.546875 C 70.492188 66.601562 72.480469 64.707031 74.519531 62.859375 C 76.554688 61.015625 78.636719 59.21875 80.761719 57.476562 C 82.886719 55.730469 85.054688 54.039062 87.261719 52.402344 C 89.472656 50.765625 91.71875 49.179688 94.003906 47.652344 C 96.289062 46.125 98.613281 44.65625 100.972656 43.242188 C 103.328125 41.828125 105.722656 40.472656 108.144531 39.175781 C 110.570312 37.882812 113.027344 36.644531 115.511719 35.46875 C 117.996094 34.292969 120.507812 33.179688 123.050781 32.128906 C 125.589844 31.078125 128.152344 30.085938 130.742188 29.160156 C 133.332031 28.234375 135.941406 27.371094 138.574219 26.574219 C 141.203125 25.777344 143.851562 25.042969 146.519531 24.375 C 149.1875 23.707031 151.867188 23.105469 154.566406 22.570312 C 157.261719 22.03125 159.96875 21.5625 162.691406 21.160156 C 165.410156 20.753906 168.136719 20.417969 170.875 20.148438 C 173.609375 19.878906 176.351562 19.675781 179.097656 19.542969 C 181.84375 19.40625 184.589844 19.339844 187.339844 19.339844 C 190.089844 19.339844 192.835938 19.40625 195.582031 19.542969 C 198.328125 19.675781 201.070312 19.878906 203.808594 20.148438 C 206.542969 20.417969 209.269531 20.753906 211.992188 21.160156 C 214.710938 21.5625 217.417969 22.03125 220.117188 22.570312 C 222.8125 23.105469 225.492188 23.707031 228.160156 24.375 C 230.828125 25.042969 233.476562 25.777344 236.109375 26.574219 C 238.738281 27.371094 241.347656 28.234375 243.9375 29.160156 C 246.527344 30.085938 249.089844 31.078125 251.632812 32.128906 C 254.171875 33.179688 256.683594 34.292969 259.167969 35.46875 C 261.65625 36.644531 264.109375 37.882812 266.535156 39.175781 C 268.960938 40.472656 271.351562 41.828125 273.710938 43.242188 C 276.066406 44.65625 278.390625 46.125 280.675781 47.652344 C 282.960938 49.179688 285.210938 50.765625 287.417969 52.402344 C 289.625 54.039062 291.792969 55.730469 293.917969 57.476562 C 296.042969 59.21875 298.125 61.015625 300.164062 62.859375 C 302.199219 64.707031 304.191406 66.601562 306.132812 68.546875 C 308.078125 70.492188 309.972656 72.480469 311.820312 74.519531 C 313.667969 76.554688 315.460938 78.636719 317.207031 80.761719 C 318.949219 82.886719 320.640625 85.054688 322.277344 87.261719 C 323.917969 89.472656 325.5 91.71875 327.027344 94.003906 C 328.554688 96.289062 330.023438 98.613281 331.4375 100.972656 C 332.851562 103.328125 334.207031 105.722656 335.503906 108.144531 C 336.800781 110.570312 338.035156 113.027344 339.210938 115.511719 C 340.386719 117.996094 341.5 120.507812 342.550781 123.050781 C 343.605469 125.589844 344.59375 128.152344 345.519531 130.742188 C 346.445312 133.332031 347.308594 135.941406 348.105469 138.574219 C 348.90625 141.203125 349.636719 143.851562 350.304688 146.519531 C 350.972656 149.1875 351.574219 151.867188 352.113281 154.566406 C 352.648438 157.261719 353.117188 159.96875 353.523438 162.691406 C 353.925781 165.410156 354.261719 168.136719 354.53125 170.875 C 354.800781 173.609375 355.003906 176.351562 355.136719 179.097656 C 355.273438 181.84375 355.339844 184.589844 355.339844 187.339844 Z M 355.339844 187.339844 " fill-opacity="1" fill-rule="nonzero"/></g><g clip-path="url(#id2)"><path fill="#242424" d="M 88.019531 279.558594 L 95.914062 279.558594 L 101.023438 258.578125 C 101.9375 254.828125 105.464844 252.359375 109.355469 252.832031 L 139.179688 256.570312 C 142.433594 256.980469 145.054688 259.417969 145.691406 262.628906 L 150.113281 284.742188 L 162.203125 284.742188 L 174.15625 265.976562 C 175.554688 263.78125 177.972656 262.457031 180.574219 262.457031 L 228.535156 262.457031 C 231.855469 262.457031 234.789062 264.605469 235.78125 267.773438 L 241.148438 284.742188 L 252.035156 284.742188 L 255.832031 240.527344 C 246.6875 242.722656 235.964844 243.777344 223.53125 243.777344 C 173.867188 243.777344 151.417969 226.96875 148.480469 187.582031 C 148.285156 184.933594 148.234375 182.152344 148.335938 178.820312 C 148.742188 165.292969 152.117188 151.734375 155.230469 141.832031 C 149.710938 142.386719 143.484375 143.183594 136.90625 144.425781 C 136.921875 144.609375 136.925781 144.824219 136.9375 145.015625 C 136.984375 145.613281 137.007812 146.246094 137.046875 146.871094 C 137.097656 147.832031 137.140625 148.800781 137.160156 149.824219 C 137.179688 150.539062 137.179688 151.269531 137.179688 152.015625 C 137.175781 153.050781 137.15625 154.117188 137.117188 155.214844 C 137.089844 156 137.058594 156.785156 137.007812 157.605469 C 136.941406 158.757812 136.835938 159.953125 136.722656 161.15625 C 136.644531 161.988281 136.574219 162.804688 136.472656 163.65625 C 136.3125 165.007812 136.089844 166.410156 135.867188 167.824219 C 135.742188 168.59375 135.644531 169.332031 135.5 170.121094 C 135.097656 172.328125 134.617188 174.582031 134.03125 176.910156 C 133.949219 177.234375 133.832031 177.578125 133.75 177.90625 C 133.21875 179.929688 132.628906 181.988281 131.945312 184.09375 C 131.667969 184.960938 131.320312 185.855469 131.011719 186.734375 C 130.445312 188.351562 129.863281 189.96875 129.195312 191.625 C 128.785156 192.644531 128.324219 193.679688 127.871094 194.71875 C 127.191406 196.289062 126.476562 197.867188 125.699219 199.476562 C 125.167969 200.5625 124.609375 201.65625 124.035156 202.757812 C 123.191406 204.375 122.292969 206 121.347656 207.640625 C 120.710938 208.753906 120.066406 209.859375 119.378906 210.980469 C 118.328125 212.695312 117.183594 214.421875 116.011719 216.160156 C 115.292969 217.226562 114.601562 218.289062 113.835938 219.363281 C 112.410156 221.363281 110.851562 223.378906 109.253906 225.402344 C 108.601562 226.230469 108.011719 227.050781 107.332031 227.886719 C 104.984375 230.742188 102.476562 233.617188 99.769531 236.511719 C 99.265625 237.050781 98.679688 237.59375 98.160156 238.136719 C 95.90625 240.488281 93.5625 242.847656 91.050781 245.214844 C 89.980469 246.226562 88.804688 247.230469 87.6875 248.242188 C 86.121094 249.65625 84.636719 251.070312 82.972656 252.484375 C 84.742188 263.972656 86.738281 273.730469 88.019531 279.558594 Z M 282.488281 194.332031 C 281.289062 194.25 280.082031 194.148438 278.910156 193.777344 C 260.175781 187.820312 237.886719 187.175781 229.175781 187.175781 C 226.179688 187.175781 224.367188 187.246094 224.199219 187.253906 C 223.976562 187.261719 223.753906 187.269531 223.527344 187.269531 C 223.300781 187.269531 223.070312 187.261719 222.847656 187.253906 C 222.695312 187.246094 220.878906 187.175781 217.882812 187.175781 C 209.171875 187.175781 186.886719 187.820312 168.148438 193.777344 C 166.976562 194.148438 165.773438 194.25 164.570312 194.332031 C 167.867188 214.511719 179.371094 228.558594 223.53125 228.558594 C 267.6875 228.558594 279.191406 214.511719 282.488281 194.332031 Z M 283.519531 179.277344 C 283.4375 176.558594 283.207031 173.839844 282.875 171.144531 C 282.84375 170.867188 282.789062 170.597656 282.753906 170.324219 C 282.425781 167.824219 282.035156 165.339844 281.566406 162.921875 C 281.484375 162.507812 281.394531 162.109375 281.3125 161.699219 C 280.089844 162.011719 278.835938 162.21875 277.554688 162.21875 C 276.863281 162.21875 276.167969 162.167969 275.472656 162.074219 C 232.4375 156.128906 203.960938 132.507812 195.1875 95.515625 C 194.800781 94.171875 194.59375 92.757812 194.59375 91.292969 C 194.59375 90.648438 194.707031 90.035156 194.78125 89.414062 L 184.699219 73.183594 C 184.699219 73.183594 171.996094 82.257812 181.070312 110.214844 C 181.070312 110.214844 177.648438 110.066406 173.019531 110.066406 C 163.191406 110.066406 147.914062 110.738281 148.40625 114.933594 C 149.136719 121.105469 174.539062 133.085938 174.539062 133.085938 C 174.539062 133.085938 168.648438 146.613281 165.476562 162.929688 C 164.964844 165.5625 164.523438 168.265625 164.191406 170.996094 C 164.1875 171.019531 164.183594 171.042969 164.183594 171.0625 C 163.851562 173.785156 163.621094 176.539062 163.542969 179.273438 C 183.96875 172.78125 207.363281 171.957031 217.882812 171.957031 C 219.117188 171.957031 220.097656 171.972656 220.953125 171.984375 C 221.1875 171.992188 221.359375 171.992188 221.5625 171.996094 C 222.792969 172.023438 223.53125 172.054688 223.53125 172.054688 C 223.53125 172.054688 224.265625 172.023438 225.496094 171.996094 C 225.703125 171.992188 225.871094 171.992188 226.109375 171.984375 C 226.960938 171.972656 227.941406 171.957031 229.175781 171.957031 C 233.867188 171.957031 241.1875 172.15625 249.589844 172.914062 C 260.039062 173.851562 272.199219 175.675781 283.519531 179.277344 Z M 253.46875 114.972656 C 247.878906 114.972656 243.34375 119.507812 243.34375 125.097656 C 243.34375 130.691406 247.878906 135.226562 253.46875 135.226562 C 259.0625 135.226562 263.597656 130.691406 263.597656 125.097656 C 263.597656 119.507812 259.0625 114.972656 253.46875 114.972656 Z M 75.96875 157.984375 C 85.664062 145.585938 102.761719 136.507812 126.796875 130.992188 C 131.042969 130.015625 135.191406 129.242188 139.21875 128.582031 C 134.09375 123.257812 133.613281 119.378906 133.300781 116.710938 C 132.738281 111.929688 134.277344 107.09375 137.515625 103.449219 C 142.046875 98.355469 149.246094 95.859375 162.683594 95.105469 C 161.414062 71.976562 174.074219 62.078125 175.859375 60.804688 C 178.457031 58.945312 181.554688 57.96875 184.699219 57.96875 C 185.691406 57.96875 186.691406 58.0625 187.679688 58.261719 C 191.800781 59.085938 195.398438 61.582031 197.617188 65.152344 L 204.40625 76.074219 L 242.65625 76.074219 L 249.441406 65.152344 C 251.660156 61.582031 255.257812 59.085938 259.382812 58.261719 C 260.371094 58.0625 261.367188 57.96875 262.363281 57.96875 C 265.507812 57.96875 268.605469 58.945312 271.207031 60.804688 C 272.988281 62.078125 285.644531 71.976562 284.375 95.105469 C 297.8125 95.859375 305.015625 98.355469 309.542969 103.449219 C 312.785156 107.09375 314.320312 111.925781 313.761719 116.710938 C 313.25 121.0625 312.359375 128.621094 291.441406 140.464844 C 291.652344 141.121094 291.863281 141.789062 292.078125 142.476562 C 292.078125 142.476562 292.078125 142.480469 292.078125 142.480469 C 292.503906 143.851562 292.9375 145.285156 293.359375 146.785156 C 296.628906 158.28125 298.433594 169.058594 298.726562 178.820312 C 298.824219 182.140625 298.777344 184.925781 298.578125 187.582031 C 296.855469 210.714844 288.335938 226 271.59375 234.726562 L 266.59375 293 C 266.257812 296.933594 262.96875 299.957031 259.015625 299.957031 L 235.570312 299.957031 C 232.246094 299.957031 229.3125 297.808594 228.320312 294.644531 L 222.957031 277.671875 L 184.75 277.671875 L 172.796875 296.4375 C 171.402344 298.632812 168.976562 299.957031 166.378906 299.957031 L 143.878906 299.957031 C 140.253906 299.957031 137.136719 297.398438 136.421875 293.84375 L 131.855469 270.988281 L 114.199219 268.769531 L 109.273438 288.96875 C 108.445312 292.371094 105.390625 294.773438 101.886719 294.773438 L 81.957031 294.773438 C 78.457031 294.773438 75.414062 292.386719 74.574219 288.996094 C 74.402344 288.308594 70.371094 271.925781 67.292969 250.457031 C 60.757812 204.800781 63.675781 173.6875 75.96875 157.984375 " fill-opacity="1" fill-rule="nonzero"/></g><path fill="#242424" d="M 253.550781 201.273438 C 254.292969 198.203125 257.371094 196.308594 260.433594 197.058594 C 263.496094 197.796875 265.382812 200.878906 264.648438 203.9375 L 262.464844 213.015625 C 261.832031 215.628906 259.492188 217.386719 256.921875 217.386719 C 256.476562 217.386719 256.03125 217.335938 255.578125 217.226562 C 252.519531 216.492188 250.628906 213.410156 251.367188 210.347656 L 253.550781 201.273438 " fill-opacity="1" fill-rule="nonzero"/><path fill="#242424" d="M 191.46875 217.234375 C 191.023438 217.339844 190.578125 217.386719 190.132812 217.386719 C 187.554688 217.386719 185.222656 215.628906 184.589844 213.011719 L 182.417969 203.9375 C 181.679688 200.871094 183.566406 197.792969 186.632812 197.054688 C 189.644531 196.328125 192.769531 198.207031 193.511719 201.277344 L 195.6875 210.351562 C 196.425781 213.417969 194.535156 216.496094 191.46875 217.234375 " fill-opacity="1" fill-rule="nonzero"/><path fill="#242424" d="M 193.589844 133.199219 C 189.117188 133.199219 185.488281 129.574219 185.488281 125.097656 C 185.488281 120.625 189.117188 116.996094 193.589844 116.996094 C 198.0625 116.996094 201.691406 120.625 201.691406 125.097656 C 201.691406 129.574219 198.0625 133.199219 193.589844 133.199219 " fill-opacity="1" fill-rule="nonzero"/><g clip-path="url(#id3)"><path fill="#dedede" d="M 306.589844 116.054688 L 310.570312 116.054688 C 312.390625 116.054688 313.855469 117.507812 313.855469 119.308594 L 313.855469 157.75 C 313.855469 159.550781 312.390625 161.003906 310.570312 161.003906 L 306.589844 161.003906 C 304.769531 161.003906 303.304688 159.550781 303.304688 157.75 L 303.304688 119.308594 C 303.304688 117.507812 304.769531 116.054688 306.589844 116.054688 " fill-opacity="1" fill-rule="nonzero"/></g><g clip-path="url(#id4)"><path fill="#dedede" d="M 136.90625 116.054688 L 140.890625 116.054688 C 142.710938 116.054688 144.175781 117.507812 144.175781 119.308594 L 144.175781 157.75 C 144.175781 159.550781 142.710938 161.003906 140.890625 161.003906 L 136.90625 161.003906 C 135.089844 161.003906 133.625 159.550781 133.625 157.75 L 133.625 119.308594 C 133.625 117.507812 135.089844 116.054688 136.90625 116.054688 " fill-opacity="1" fill-rule="nonzero"/></g><g clip-path="url(#id5)"><path fill="#f0f0f0" d="M 143.617188 110.226562 C 140.664062 110.226562 138.289062 112.410156 138.289062 115.125 L 138.289062 162.542969 C 138.289062 165.257812 140.664062 167.441406 143.617188 167.441406 L 217.382812 167.441406 L 217.382812 152.242188 C 217.382812 148.554688 220.382812 145.582031 224.109375 145.582031 C 227.832031 145.582031 230.832031 148.554688 230.832031 152.242188 L 230.832031 167.441406 L 304.597656 167.441406 C 307.550781 167.441406 309.925781 165.257812 309.925781 162.542969 L 309.925781 115.125 C 309.925781 112.410156 307.550781 110.226562 304.597656 110.226562 L 143.617188 110.226562 " fill-opacity="1" fill-rule="nonzero"/></g><path fill="#eb222b" d="M 149.050781 118.710938 L 205.128906 118.710938 C 207.832031 118.710938 210.003906 121.082031 210.003906 124.027344 L 210.003906 157.738281 C 210.003906 160.683594 207.832031 163.054688 205.128906 163.054688 L 149.050781 163.054688 C 146.347656 163.054688 144.175781 160.683594 144.175781 157.738281 L 144.175781 124.027344 C 144.175781 121.082031 146.347656 118.710938 149.050781 118.710938 " fill-opacity="1" fill-rule="nonzero"/><path fill="#606aad" d="M 242.347656 118.710938 L 298.429688 118.710938 C 301.128906 118.710938 303.304688 121.082031 303.304688 124.027344 L 303.304688 157.738281 C 303.304688 160.683594 301.128906 163.054688 298.429688 163.054688 L 242.347656 163.054688 C 239.648438 163.054688 237.472656 160.683594 237.472656 157.738281 L 237.472656 124.027344 C 237.472656 121.082031 239.648438 118.710938 242.347656 118.710938 " fill-opacity="1" fill-rule="nonzero"/><path fill="#ffffff" d="M 148.410156 111.722656 L 184.382812 111.722656 C 185.359375 111.722656 186.140625 112.5 186.140625 113.464844 C 186.140625 114.425781 185.359375 115.203125 184.382812 115.203125 L 148.410156 115.203125 C 147.4375 115.203125 146.65625 114.425781 146.65625 113.464844 C 146.65625 112.5 147.4375 111.722656 148.410156 111.722656 " fill-opacity="1" fill-rule="nonzero"/><path fill="#ffffff" d="M 190.015625 111.722656 L 196.59375 111.722656 C 197.566406 111.722656 198.351562 112.5 198.351562 113.464844 C 198.351562 114.425781 197.566406 115.203125 196.59375 115.203125 L 190.015625 115.203125 C 189.042969 115.203125 188.261719 114.425781 188.261719 113.464844 C 188.261719 112.5 189.042969 111.722656 190.015625 111.722656 " fill-opacity="1" fill-rule="nonzero"/><path fill="#e31d25" d="M 202.101562 118.710938 C 199.988281 125.484375 196.4375 131.816406 191.738281 137.164062 C 185.066406 144.75 176.078125 150.308594 166.269531 152.910156 C 159.089844 154.816406 151.496094 155.132812 144.175781 153.886719 L 144.175781 157.738281 C 144.175781 160.683594 146.347656 163.054688 149.050781 163.054688 L 205.128906 163.054688 C 207.832031 163.054688 210.003906 160.683594 210.003906 157.738281 L 210.003906 124.027344 C 210.003906 121.082031 207.832031 118.710938 205.128906 118.710938 L 202.101562 118.710938 " fill-opacity="1" fill-rule="nonzero"/><path fill="#f14b5f" d="M 210.003906 131.546875 L 178.210938 163.054688 L 185.816406 163.054688 L 210.003906 139.085938 Z M 186.824219 118.710938 L 144.800781 160.351562 C 145.636719 161.96875 147.222656 163.054688 149.050781 163.054688 L 155.398438 163.054688 L 200.148438 118.710938 L 186.824219 118.710938 " fill-opacity="1" fill-rule="nonzero"/><path fill="#ef394a" d="M 165.417969 153.125 C 160.59375 154.316406 155.597656 154.796875 150.632812 154.574219 L 144.800781 160.351562 C 144.851562 160.453125 144.90625 160.550781 144.964844 160.644531 C 144.964844 160.648438 144.96875 160.648438 144.96875 160.652344 C 145.082031 160.84375 145.207031 161.023438 145.34375 161.199219 C 145.347656 161.199219 145.347656 161.203125 145.351562 161.207031 C 145.417969 161.292969 145.488281 161.375 145.558594 161.457031 C 145.703125 161.617188 145.859375 161.765625 146.019531 161.90625 C 146.027344 161.914062 146.035156 161.921875 146.042969 161.925781 C 146.121094 161.992188 146.203125 162.058594 146.285156 162.121094 C 146.375 162.1875 146.460938 162.25 146.554688 162.308594 C 146.554688 162.308594 146.554688 162.3125 146.554688 162.3125 C 146.636719 162.363281 146.722656 162.414062 146.804688 162.460938 C 146.824219 162.472656 146.839844 162.480469 146.859375 162.492188 C 146.933594 162.53125 147.011719 162.574219 147.089844 162.609375 C 147.105469 162.617188 147.117188 162.625 147.132812 162.628906 C 147.222656 162.671875 147.316406 162.710938 147.40625 162.746094 C 147.425781 162.753906 147.445312 162.757812 147.464844 162.769531 C 147.539062 162.792969 147.613281 162.820312 147.6875 162.84375 C 147.714844 162.851562 147.742188 162.859375 147.769531 162.871094 C 147.851562 162.894531 147.933594 162.914062 148.019531 162.933594 C 148.03125 162.9375 148.046875 162.941406 148.058594 162.945312 C 148.15625 162.96875 148.253906 162.984375 148.351562 163 C 148.375 163.003906 148.402344 163.007812 148.425781 163.011719 C 148.503906 163.019531 148.582031 163.03125 148.664062 163.035156 C 148.691406 163.039062 148.714844 163.042969 148.742188 163.042969 C 148.84375 163.046875 148.945312 163.054688 149.050781 163.054688 L 155.398438 163.054688 Z M 210.003906 131.546875 L 178.210938 163.054688 L 185.816406 163.054688 L 210.003906 139.085938 L 210.003906 131.546875 " fill-opacity="1" fill-rule="nonzero"/><path fill="#545ea1" d="M 294.339844 118.710938 C 291.867188 126.019531 287.898438 132.832031 282.734375 138.597656 C 275.273438 146.917969 265.316406 153.011719 254.464844 155.894531 C 248.9375 157.359375 243.191406 157.988281 237.476562 157.792969 C 237.5 160.710938 239.664062 163.054688 242.347656 163.054688 L 298.429688 163.054688 C 301.128906 163.054688 303.304688 160.683594 303.304688 157.738281 L 303.304688 124.027344 C 303.304688 121.082031 301.128906 118.710938 298.429688 118.710938 L 294.339844 118.710938 " fill-opacity="1" fill-rule="nonzero"/><path fill="#989cca" d="M 303.304688 125.753906 L 265.660156 163.054688 L 273.265625 163.054688 L 303.304688 133.285156 Z M 274.273438 118.710938 L 237.472656 155.175781 L 237.472656 157.738281 C 237.472656 160.683594 239.648438 163.054688 242.347656 163.054688 L 242.847656 163.054688 L 287.597656 118.710938 L 274.273438 118.710938 " fill-opacity="1" fill-rule="nonzero"/><path fill="#8086bf" d="M 248.878906 157.078125 C 245.113281 157.6875 241.289062 157.925781 237.476562 157.792969 C 237.476562 157.882812 237.480469 157.96875 237.484375 158.058594 C 237.484375 158.066406 237.484375 158.078125 237.484375 158.089844 C 237.492188 158.167969 237.496094 158.246094 237.503906 158.324219 C 237.503906 158.335938 237.507812 158.347656 237.507812 158.355469 C 237.515625 158.4375 237.527344 158.515625 237.535156 158.597656 C 237.5625 158.769531 237.597656 158.941406 237.636719 159.109375 C 237.679688 159.28125 237.726562 159.445312 237.78125 159.605469 C 237.808594 159.6875 237.839844 159.765625 237.871094 159.84375 C 237.960938 160.082031 238.070312 160.308594 238.195312 160.527344 C 238.234375 160.597656 238.277344 160.667969 238.320312 160.738281 C 238.40625 160.878906 238.5 161.015625 238.601562 161.144531 C 238.648438 161.207031 238.699219 161.273438 238.75 161.332031 C 238.761719 161.339844 238.769531 161.351562 238.777344 161.363281 C 238.820312 161.414062 238.867188 161.46875 238.914062 161.515625 C 238.917969 161.519531 238.921875 161.523438 238.925781 161.53125 C 238.976562 161.582031 239.027344 161.636719 239.082031 161.6875 C 239.09375 161.699219 239.105469 161.710938 239.121094 161.726562 C 239.167969 161.769531 239.210938 161.8125 239.257812 161.855469 C 239.261719 161.859375 239.265625 161.859375 239.265625 161.863281 C 239.324219 161.914062 239.382812 161.964844 239.441406 162.011719 C 239.445312 162.015625 239.449219 162.019531 239.457031 162.023438 C 239.511719 162.070312 239.570312 162.113281 239.632812 162.15625 C 239.640625 162.164062 239.652344 162.167969 239.660156 162.175781 C 239.714844 162.21875 239.773438 162.257812 239.832031 162.296875 C 239.835938 162.300781 239.847656 162.304688 239.851562 162.308594 C 239.910156 162.347656 239.96875 162.382812 240.03125 162.417969 C 240.054688 162.433594 240.078125 162.445312 240.101562 162.457031 C 240.144531 162.484375 240.191406 162.511719 240.242188 162.535156 C 240.269531 162.550781 240.300781 162.566406 240.332031 162.582031 C 240.375 162.601562 240.414062 162.621094 240.453125 162.640625 C 240.503906 162.664062 240.554688 162.683594 240.605469 162.707031 C 240.628906 162.714844 240.648438 162.722656 240.671875 162.734375 C 240.726562 162.753906 240.789062 162.773438 240.84375 162.796875 C 240.863281 162.804688 240.882812 162.808594 240.898438 162.816406 C 240.957031 162.835938 241.011719 162.851562 241.070312 162.871094 C 241.09375 162.875 241.113281 162.882812 241.132812 162.886719 C 241.167969 162.898438 241.207031 162.90625 241.246094 162.917969 C 241.285156 162.925781 241.328125 162.9375 241.371094 162.949219 C 241.398438 162.953125 241.425781 162.957031 241.457031 162.964844 C 241.507812 162.972656 241.554688 162.984375 241.605469 162.992188 C 241.671875 163.003906 241.738281 163.011719 241.804688 163.019531 C 241.820312 163.023438 241.832031 163.023438 241.847656 163.027344 C 241.890625 163.03125 241.933594 163.03125 241.976562 163.035156 C 242.015625 163.039062 242.058594 163.046875 242.097656 163.046875 C 242.183594 163.050781 242.265625 163.054688 242.347656 163.054688 L 242.847656 163.054688 Z M 303.304688 125.753906 L 265.660156 163.054688 L 273.265625 163.054688 L 303.304688 133.285156 L 303.304688 125.753906 " fill-opacity="1" fill-rule="nonzero"/></svg>