<svg xmlns="http://www.w3.org/2000/svg" xmlns:xlink="http://www.w3.org/1999/xlink" width="500" zoomAndPan="magnify" viewBox="0 0 375 374.999991" height="500" preserveAspectRatio="xMidYMid meet" version="1.0"><defs><g/><clipPath id="id1"><path d="M 19.71875 21.96875 L 351.96875 21.96875 L 351.96875 354.21875 L 19.71875 354.21875 Z M 19.71875 21.96875 " clip-rule="nonzero"/></clipPath><clipPath id="id2"><path d="M 43 94.257812 L 214 94.257812 L 214 258.507812 L 43 258.507812 Z M 43 94.257812 " clip-rule="nonzero"/></clipPath><clipPath id="id3"><path d="M 206 133 L 213.4375 133 L 213.4375 165 L 206 165 Z M 206 133 " clip-rule="nonzero"/></clipPath><clipPath id="id4"><path d="M 91.1875 133 L 99 133 L 99 165 L 91.1875 165 Z M 91.1875 133 " clip-rule="nonzero"/></clipPath><clipPath id="id5"><path d="M 94 129.703125 L 211 129.703125 L 211 168.703125 L 94 168.703125 Z M 94 129.703125 " clip-rule="nonzero"/></clipPath></defs><g clip-path="url(#id1)"><path fill="#ffffff" d="M 351.96875 188.09375 C 351.96875 190.8125 351.902344 193.53125 351.769531 196.246094 C 351.636719 198.960938 351.4375 201.671875 351.167969 204.375 C 350.902344 207.082031 350.570312 209.78125 350.171875 212.46875 C 349.773438 215.160156 349.308594 217.835938 348.777344 220.503906 C 348.246094 223.167969 347.652344 225.820312 346.992188 228.457031 C 346.332031 231.097656 345.605469 233.714844 344.816406 236.316406 C 344.027344 238.917969 343.175781 241.5 342.257812 244.058594 C 341.34375 246.621094 340.363281 249.15625 339.324219 251.667969 C 338.285156 254.179688 337.183594 256.664062 336.019531 259.121094 C 334.855469 261.578125 333.636719 264.007812 332.351562 266.40625 C 331.070312 268.800781 329.730469 271.167969 328.335938 273.5 C 326.9375 275.832031 325.484375 278.128906 323.972656 280.386719 C 322.460938 282.648438 320.898438 284.871094 319.277344 287.054688 C 317.65625 289.238281 315.984375 291.378906 314.261719 293.480469 C 312.535156 295.582031 310.761719 297.640625 308.933594 299.65625 C 307.109375 301.671875 305.234375 303.640625 303.3125 305.5625 C 301.390625 307.484375 299.421875 309.359375 297.40625 311.183594 C 295.390625 313.011719 293.335938 314.785156 291.234375 316.511719 C 289.132812 318.234375 286.988281 319.90625 284.804688 321.527344 C 282.621094 323.144531 280.398438 324.710938 278.136719 326.222656 C 275.878906 327.730469 273.582031 329.1875 271.25 330.582031 C 268.917969 331.980469 266.554688 333.320312 264.15625 334.601562 C 261.757812 335.882812 259.328125 337.105469 256.871094 338.269531 C 254.414062 339.429688 251.929688 340.53125 249.417969 341.574219 C 246.90625 342.613281 244.371094 343.589844 241.808594 344.507812 C 239.25 345.421875 236.667969 346.277344 234.066406 347.066406 C 231.464844 347.855469 228.847656 348.578125 226.210938 349.238281 C 223.570312 349.902344 220.921875 350.496094 218.253906 351.027344 C 215.585938 351.558594 212.910156 352.023438 210.21875 352.421875 C 207.53125 352.820312 204.832031 353.152344 202.128906 353.417969 C 199.421875 353.683594 196.710938 353.886719 193.996094 354.019531 C 191.28125 354.152344 188.5625 354.21875 185.84375 354.21875 C 183.125 354.21875 180.410156 354.152344 177.691406 354.019531 C 174.976562 353.886719 172.265625 353.683594 169.5625 353.417969 C 166.855469 353.152344 164.15625 352.820312 161.46875 352.421875 C 158.78125 352.023438 156.101562 351.558594 153.433594 351.027344 C 150.769531 350.496094 148.117188 349.902344 145.480469 349.238281 C 142.84375 348.578125 140.222656 347.855469 137.621094 347.066406 C 135.019531 346.277344 132.4375 345.421875 129.878906 344.507812 C 127.320312 343.589844 124.78125 342.613281 122.269531 341.574219 C 119.757812 340.53125 117.273438 339.429688 114.816406 338.269531 C 112.359375 337.105469 109.929688 335.882812 107.535156 334.601562 C 105.136719 333.320312 102.769531 331.980469 100.4375 330.582031 C 98.105469 329.1875 95.8125 327.730469 93.550781 326.222656 C 91.289062 324.710938 89.066406 323.144531 86.882812 321.527344 C 84.699219 319.90625 82.558594 318.234375 80.457031 316.511719 C 78.355469 314.785156 76.296875 313.011719 74.28125 311.183594 C 72.265625 309.359375 70.296875 307.484375 68.375 305.5625 C 66.453125 303.640625 64.578125 301.671875 62.753906 299.65625 C 60.929688 297.640625 59.152344 295.582031 57.429688 293.480469 C 55.703125 291.378906 54.03125 289.238281 52.410156 287.054688 C 50.792969 284.871094 49.226562 282.648438 47.714844 280.386719 C 46.207031 278.128906 44.75 275.832031 43.355469 273.5 C 41.957031 271.167969 40.617188 268.800781 39.335938 266.40625 C 38.054688 264.007812 36.832031 261.578125 35.667969 259.121094 C 34.507812 256.664062 33.40625 254.179688 32.363281 251.667969 C 31.324219 249.15625 30.347656 246.621094 29.429688 244.058594 C 28.515625 241.5 27.660156 238.917969 26.871094 236.316406 C 26.082031 233.714844 25.359375 231.097656 24.699219 228.457031 C 24.039062 225.820312 23.441406 223.167969 22.910156 220.503906 C 22.382812 217.835938 21.917969 215.160156 21.515625 212.46875 C 21.117188 209.78125 20.785156 207.082031 20.519531 204.375 C 20.253906 201.671875 20.054688 198.960938 19.917969 196.246094 C 19.785156 193.53125 19.71875 190.8125 19.71875 188.09375 C 19.71875 185.375 19.785156 182.65625 19.917969 179.941406 C 20.054688 177.226562 20.253906 174.515625 20.519531 171.808594 C 20.785156 169.105469 21.117188 166.40625 21.515625 163.71875 C 21.917969 161.027344 22.382812 158.351562 22.910156 155.683594 C 23.441406 153.019531 24.039062 150.367188 24.699219 147.726562 C 25.359375 145.089844 26.082031 142.472656 26.871094 139.871094 C 27.660156 137.269531 28.515625 134.6875 29.429688 132.128906 C 30.347656 129.566406 31.324219 127.03125 32.363281 124.519531 C 33.40625 122.007812 34.507812 119.523438 35.667969 117.066406 C 36.832031 114.609375 38.054688 112.179688 39.335938 109.78125 C 40.617188 107.386719 41.957031 105.019531 43.355469 102.6875 C 44.75 100.355469 46.207031 98.058594 47.714844 95.800781 C 49.226562 93.539062 50.792969 91.316406 52.410156 89.132812 C 54.03125 86.949219 55.703125 84.804688 57.429688 82.703125 C 59.152344 80.601562 60.929688 78.546875 62.753906 76.53125 C 64.578125 74.515625 66.453125 72.546875 68.375 70.625 C 70.296875 68.703125 72.265625 66.828125 74.28125 65.003906 C 76.296875 63.175781 78.355469 61.402344 80.457031 59.675781 C 82.558594 57.953125 84.699219 56.28125 86.882812 54.660156 C 89.066406 53.042969 91.289062 51.476562 93.550781 49.964844 C 95.8125 48.457031 98.105469 47 100.4375 45.601562 C 102.769531 44.207031 105.136719 42.867188 107.535156 41.585938 C 109.929688 40.304688 112.359375 39.082031 114.816406 37.917969 C 117.273438 36.757812 119.757812 35.65625 122.269531 34.613281 C 124.78125 33.574219 127.320312 32.59375 129.878906 31.679688 C 132.4375 30.761719 135.019531 29.910156 137.621094 29.121094 C 140.222656 28.332031 142.84375 27.609375 145.480469 26.945312 C 148.117188 26.285156 150.769531 25.691406 153.433594 25.160156 C 156.101562 24.628906 158.78125 24.164062 161.46875 23.765625 C 164.15625 23.367188 166.855469 23.035156 169.5625 22.769531 C 172.265625 22.503906 174.976562 22.300781 177.691406 22.167969 C 180.410156 22.035156 183.125 21.96875 185.84375 21.96875 C 188.5625 21.96875 191.28125 22.035156 193.996094 22.167969 C 196.710938 22.300781 199.421875 22.503906 202.128906 22.769531 C 204.832031 23.035156 207.53125 23.367188 210.21875 23.765625 C 212.910156 24.164062 215.585938 24.628906 218.253906 25.160156 C 220.921875 25.691406 223.570312 26.285156 226.210938 26.945312 C 228.847656 27.609375 231.464844 28.332031 234.066406 29.121094 C 236.667969 29.910156 239.25 30.761719 241.808594 31.679688 C 244.371094 32.59375 246.90625 33.574219 249.417969 34.613281 C 251.929688 35.65625 254.414062 36.757812 256.871094 37.917969 C 259.328125 39.082031 261.757812 40.304688 264.15625 41.585938 C 266.554688 42.867188 268.917969 44.207031 271.25 45.601562 C 273.582031 47 275.878906 48.457031 278.136719 49.964844 C 280.398438 51.476562 282.621094 53.042969 284.804688 54.660156 C 286.988281 56.28125 289.132812 57.953125 291.234375 59.675781 C 293.335938 61.402344 295.390625 63.175781 297.40625 65.003906 C 299.421875 66.828125 301.390625 68.703125 303.3125 70.625 C 305.234375 72.546875 307.109375 74.515625 308.933594 76.53125 C 310.761719 78.546875 312.535156 80.601562 314.261719 82.703125 C 315.984375 84.804688 317.65625 86.949219 319.277344 89.132812 C 320.898438 91.316406 322.460938 93.539062 323.972656 95.800781 C 325.484375 98.058594 326.9375 100.355469 328.335938 102.6875 C 329.730469 105.019531 331.070312 107.386719 332.351562 109.78125 C 333.636719 112.179688 334.855469 114.609375 336.019531 117.066406 C 337.183594 119.523438 338.285156 122.007812 339.324219 124.519531 C 340.363281 127.03125 341.34375 129.566406 342.257812 132.128906 C 343.175781 134.6875 344.027344 137.269531 344.816406 139.871094 C 345.605469 142.472656 346.332031 145.089844 346.992188 147.726562 C 347.652344 150.367188 348.246094 153.019531 348.777344 155.683594 C 349.308594 158.351562 349.773438 161.027344 350.171875 163.71875 C 350.570312 166.40625 350.902344 169.105469 351.167969 171.808594 C 351.4375 174.515625 351.636719 177.226562 351.769531 179.941406 C 351.902344 182.65625 351.96875 185.375 351.96875 188.09375 Z M 351.96875 188.09375 " fill-opacity="1" fill-rule="nonzero"/></g><g clip-path="url(#id2)"><path fill="#242424" d="M 60.335938 244.664062 L 65.691406 244.664062 L 69.160156 230.421875 C 69.777344 227.878906 72.171875 226.203125 74.8125 226.523438 L 95.039062 229.0625 C 97.246094 229.339844 99.027344 230.992188 99.457031 233.171875 L 102.457031 248.183594 L 110.660156 248.183594 L 118.765625 235.445312 C 119.714844 233.957031 121.355469 233.054688 123.121094 233.054688 L 155.652344 233.054688 C 157.90625 233.054688 159.894531 234.515625 160.570312 236.664062 L 164.207031 248.183594 L 171.59375 248.183594 L 174.167969 218.171875 C 167.964844 219.660156 160.691406 220.378906 152.257812 220.378906 C 118.570312 220.378906 103.34375 208.96875 101.351562 182.234375 C 101.214844 180.4375 101.183594 178.546875 101.253906 176.285156 C 101.527344 167.105469 103.816406 157.902344 105.925781 151.179688 C 102.183594 151.554688 97.960938 152.097656 93.5 152.941406 C 93.507812 153.066406 93.511719 153.214844 93.519531 153.339844 C 93.550781 153.746094 93.570312 154.175781 93.59375 154.601562 C 93.628906 155.253906 93.65625 155.910156 93.671875 156.605469 C 93.683594 157.09375 93.683594 157.585938 93.683594 158.09375 C 93.679688 158.796875 93.667969 159.519531 93.640625 160.265625 C 93.625 160.796875 93.601562 161.332031 93.570312 161.886719 C 93.523438 162.667969 93.453125 163.480469 93.375 164.296875 C 93.320312 164.863281 93.273438 165.414062 93.207031 165.996094 C 93.097656 166.910156 92.945312 167.863281 92.792969 168.824219 C 92.707031 169.34375 92.644531 169.847656 92.546875 170.382812 C 92.269531 171.878906 91.945312 173.410156 91.546875 174.988281 C 91.492188 175.210938 91.414062 175.445312 91.355469 175.667969 C 91 177.039062 90.597656 178.4375 90.132812 179.867188 C 89.945312 180.457031 89.710938 181.0625 89.5 181.660156 C 89.117188 182.757812 88.71875 183.855469 88.269531 184.976562 C 87.988281 185.671875 87.675781 186.375 87.371094 187.078125 C 86.910156 188.144531 86.421875 189.214844 85.894531 190.308594 C 85.535156 191.046875 85.15625 191.789062 84.769531 192.535156 C 84.195312 193.632812 83.585938 194.734375 82.945312 195.851562 C 82.511719 196.605469 82.078125 197.355469 81.609375 198.117188 C 80.894531 199.28125 80.121094 200.453125 79.324219 201.632812 C 78.839844 202.355469 78.371094 203.074219 77.851562 203.804688 C 76.882812 205.164062 75.824219 206.53125 74.742188 207.90625 C 74.300781 208.46875 73.898438 209.023438 73.4375 209.589844 C 71.84375 211.53125 70.144531 213.480469 68.308594 215.445312 C 67.964844 215.8125 67.566406 216.179688 67.214844 216.546875 C 65.6875 218.144531 64.097656 219.746094 62.394531 221.355469 C 61.667969 222.039062 60.871094 222.722656 60.113281 223.410156 C 59.046875 224.367188 58.042969 225.328125 56.914062 226.289062 C 58.113281 234.085938 59.46875 240.710938 60.335938 244.664062 Z M 192.25 186.816406 C 191.4375 186.761719 190.617188 186.691406 189.824219 186.4375 C 177.113281 182.394531 161.996094 181.957031 156.085938 181.957031 C 154.054688 181.957031 152.824219 182.007812 152.710938 182.011719 C 152.5625 182.019531 152.410156 182.023438 152.253906 182.023438 C 152.101562 182.023438 151.945312 182.019531 151.796875 182.011719 C 151.691406 182.007812 150.460938 181.957031 148.429688 181.957031 C 142.519531 181.957031 127.402344 182.394531 114.691406 186.4375 C 113.898438 186.691406 113.078125 186.761719 112.265625 186.816406 C 114.5 200.515625 122.304688 210.046875 152.257812 210.046875 C 182.210938 210.046875 190.015625 200.515625 192.25 186.816406 Z M 192.949219 176.597656 C 192.894531 174.753906 192.738281 172.90625 192.511719 171.074219 C 192.492188 170.886719 192.453125 170.707031 192.429688 170.519531 C 192.207031 168.824219 191.941406 167.136719 191.625 165.496094 C 191.570312 165.214844 191.507812 164.945312 191.453125 164.664062 C 190.621094 164.878906 189.773438 165.019531 188.902344 165.019531 C 188.433594 165.019531 187.960938 164.984375 187.488281 164.921875 C 158.300781 160.886719 138.984375 144.851562 133.03125 119.742188 C 132.769531 118.832031 132.628906 117.871094 132.628906 116.875 C 132.628906 116.441406 132.707031 116.023438 132.757812 115.601562 L 125.917969 104.585938 C 125.917969 104.585938 117.300781 110.746094 123.457031 129.71875 C 123.457031 129.71875 121.136719 129.617188 117.996094 129.617188 C 111.328125 129.617188 100.964844 130.074219 101.300781 132.925781 C 101.792969 137.113281 119.027344 145.242188 119.027344 145.242188 C 119.027344 145.242188 115.03125 154.425781 112.878906 165.5 C 112.53125 167.289062 112.230469 169.121094 112.007812 170.976562 C 112.003906 170.992188 112.003906 171.007812 112 171.023438 C 111.773438 172.871094 111.621094 174.738281 111.566406 176.59375 C 125.421875 172.1875 141.292969 171.628906 148.429688 171.628906 C 149.265625 171.628906 149.929688 171.636719 150.507812 171.648438 C 150.667969 171.652344 150.785156 171.652344 150.921875 171.65625 C 151.757812 171.671875 152.257812 171.695312 152.257812 171.695312 C 152.257812 171.695312 152.757812 171.671875 153.589844 171.65625 C 153.730469 171.652344 153.84375 171.652344 154.007812 171.648438 C 154.585938 171.636719 155.25 171.628906 156.085938 171.628906 C 159.269531 171.628906 164.234375 171.761719 169.933594 172.277344 C 177.019531 172.914062 185.269531 174.152344 192.949219 176.597656 Z M 172.566406 132.949219 C 168.773438 132.949219 165.699219 136.027344 165.699219 139.824219 C 165.699219 143.621094 168.773438 146.699219 172.566406 146.699219 C 176.359375 146.699219 179.433594 143.621094 179.433594 139.824219 C 179.433594 136.027344 176.359375 132.949219 172.566406 132.949219 Z M 52.164062 162.144531 C 58.738281 153.730469 70.335938 147.566406 86.640625 143.820312 C 89.519531 143.160156 92.335938 142.636719 95.066406 142.1875 C 91.589844 138.574219 91.265625 135.941406 91.054688 134.128906 C 90.671875 130.886719 91.714844 127.601562 93.914062 125.128906 C 96.984375 121.671875 101.871094 119.976562 110.984375 119.464844 C 110.125 103.765625 118.710938 97.046875 119.921875 96.183594 C 121.683594 94.917969 123.785156 94.257812 125.917969 94.257812 C 126.59375 94.257812 127.269531 94.324219 127.9375 94.457031 C 130.734375 95.015625 133.175781 96.710938 134.679688 99.132812 L 139.285156 106.546875 L 165.230469 106.546875 L 169.832031 99.132812 C 171.339844 96.710938 173.78125 95.015625 176.574219 94.457031 C 177.246094 94.324219 177.921875 94.257812 178.597656 94.257812 C 180.734375 94.257812 182.832031 94.917969 184.597656 96.183594 C 185.804688 97.046875 194.390625 103.765625 193.53125 119.464844 C 202.644531 119.976562 207.53125 121.671875 210.601562 125.128906 C 212.800781 127.601562 213.84375 130.882812 213.464844 134.128906 C 213.117188 137.082031 212.515625 142.214844 198.320312 150.253906 C 198.464844 150.699219 198.609375 151.152344 198.753906 151.621094 C 199.042969 152.554688 199.335938 153.523438 199.625 154.542969 C 201.84375 162.347656 203.066406 169.664062 203.265625 176.285156 C 203.332031 178.539062 203.300781 180.429688 203.164062 182.234375 C 201.996094 197.9375 196.214844 208.3125 184.859375 214.234375 L 181.46875 253.789062 C 181.242188 256.457031 179.011719 258.511719 176.328125 258.511719 L 160.421875 258.511719 C 158.171875 258.511719 156.179688 257.050781 155.507812 254.902344 L 151.867188 243.382812 L 125.953125 243.382812 L 117.84375 256.121094 C 116.898438 257.613281 115.253906 258.511719 113.492188 258.511719 L 98.230469 258.511719 C 95.769531 258.511719 93.65625 256.773438 93.171875 254.363281 L 90.074219 238.847656 L 78.097656 237.34375 L 74.757812 251.050781 C 74.191406 253.359375 72.121094 254.992188 69.742188 254.992188 L 56.222656 254.992188 C 53.851562 254.992188 51.785156 253.371094 51.21875 251.070312 C 51.101562 250.605469 48.367188 239.484375 46.277344 224.910156 C 41.84375 193.921875 43.824219 172.804688 52.164062 162.144531 " fill-opacity="1" fill-rule="nonzero"/></g><path fill="#242424" d="M 172.621094 191.527344 C 173.125 189.445312 175.210938 188.15625 177.289062 188.667969 C 179.367188 189.167969 180.648438 191.257812 180.148438 193.335938 L 178.667969 199.496094 C 178.238281 201.273438 176.652344 202.464844 174.90625 202.464844 C 174.605469 202.464844 174.304688 202.429688 173.996094 202.355469 C 171.921875 201.855469 170.640625 199.765625 171.140625 197.6875 L 172.621094 191.527344 " fill-opacity="1" fill-rule="nonzero"/><path fill="#242424" d="M 130.507812 202.359375 C 130.207031 202.433594 129.90625 202.464844 129.605469 202.464844 C 127.855469 202.464844 126.273438 201.273438 125.84375 199.496094 L 124.371094 193.335938 C 123.871094 191.253906 125.148438 189.164062 127.230469 188.664062 C 129.269531 188.171875 131.390625 189.445312 131.894531 191.527344 L 133.371094 197.6875 C 133.871094 199.769531 132.589844 201.859375 130.507812 202.359375 " fill-opacity="1" fill-rule="nonzero"/><path fill="#242424" d="M 131.949219 145.320312 C 128.914062 145.320312 126.453125 142.859375 126.453125 139.824219 C 126.453125 136.785156 128.914062 134.324219 131.949219 134.324219 C 134.984375 134.324219 137.441406 136.785156 137.441406 139.824219 C 137.441406 142.859375 134.984375 145.320312 131.949219 145.320312 " fill-opacity="1" fill-rule="nonzero"/><g clip-path="url(#id3)"><path fill="#dedede" d="M 208.457031 133.6875 L 211.160156 133.6875 C 212.390625 133.6875 213.382812 134.675781 213.382812 135.90625 L 213.382812 162.117188 C 213.382812 163.347656 212.390625 164.335938 211.160156 164.335938 L 208.457031 164.335938 C 207.226562 164.335938 206.234375 163.347656 206.234375 162.117188 L 206.234375 135.90625 C 206.234375 134.675781 207.226562 133.6875 208.457031 133.6875 " fill-opacity="1" fill-rule="nonzero"/></g><g clip-path="url(#id4)"><path fill="#dedede" d="M 93.46875 133.6875 L 96.164062 133.6875 C 97.398438 133.6875 98.390625 134.675781 98.390625 135.90625 L 98.390625 162.117188 C 98.390625 163.347656 97.398438 164.335938 96.164062 164.335938 L 93.46875 164.335938 C 92.234375 164.335938 91.242188 163.347656 91.242188 162.117188 L 91.242188 135.90625 C 91.242188 134.675781 92.234375 133.6875 93.46875 133.6875 " fill-opacity="1" fill-rule="nonzero"/></g><g clip-path="url(#id5)"><path fill="#f0f0f0" d="M 98.015625 129.714844 C 96.011719 129.714844 94.402344 131.203125 94.402344 133.050781 L 94.402344 165.386719 C 94.402344 167.238281 96.011719 168.726562 98.015625 168.726562 L 148.003906 168.726562 L 148.003906 158.363281 C 148.003906 155.847656 150.039062 153.820312 152.5625 153.820312 C 155.085938 153.820312 157.117188 155.847656 157.117188 158.363281 L 157.117188 168.726562 L 207.109375 168.726562 C 209.109375 168.726562 210.71875 167.238281 210.71875 165.386719 L 210.71875 133.050781 C 210.71875 131.203125 209.109375 129.714844 207.109375 129.714844 L 98.015625 129.714844 " fill-opacity="1" fill-rule="nonzero"/></g><path fill="#eb222b" d="M 101.695312 135.5 L 139.699219 135.5 C 141.53125 135.5 143.003906 137.113281 143.003906 139.121094 L 143.003906 162.109375 C 143.003906 164.117188 141.53125 165.734375 139.699219 165.734375 L 101.695312 165.734375 C 99.863281 165.734375 98.390625 164.117188 98.390625 162.109375 L 98.390625 139.121094 C 98.390625 137.113281 99.863281 135.5 101.695312 135.5 " fill-opacity="1" fill-rule="nonzero"/><path fill="#606aad" d="M 164.925781 135.5 L 202.929688 135.5 C 204.761719 135.5 206.234375 137.113281 206.234375 139.121094 L 206.234375 162.109375 C 206.234375 164.117188 204.761719 165.734375 202.929688 165.734375 L 164.925781 165.734375 C 163.09375 165.734375 161.621094 164.117188 161.621094 162.109375 L 161.621094 139.121094 C 161.621094 137.113281 163.09375 135.5 164.925781 135.5 " fill-opacity="1" fill-rule="nonzero"/><path fill="#ffffff" d="M 101.261719 130.734375 L 125.640625 130.734375 C 126.300781 130.734375 126.832031 131.265625 126.832031 131.921875 C 126.832031 132.578125 126.300781 133.105469 125.640625 133.105469 L 101.261719 133.105469 C 100.601562 133.105469 100.074219 132.578125 100.074219 131.921875 C 100.074219 131.265625 100.601562 130.734375 101.261719 130.734375 " fill-opacity="1" fill-rule="nonzero"/><path fill="#ffffff" d="M 129.457031 130.734375 L 133.917969 130.734375 C 134.574219 130.734375 135.105469 131.265625 135.105469 131.921875 C 135.105469 132.578125 134.574219 133.105469 133.917969 133.105469 L 129.457031 133.105469 C 128.800781 133.105469 128.269531 132.578125 128.269531 131.921875 C 128.269531 131.265625 128.800781 130.734375 129.457031 130.734375 " fill-opacity="1" fill-rule="nonzero"/><path fill="#e31d25" d="M 137.648438 135.5 C 136.214844 140.117188 133.808594 144.433594 130.625 148.078125 C 126.105469 153.253906 120.011719 157.042969 113.367188 158.820312 C 108.5 160.117188 103.355469 160.332031 98.390625 159.484375 L 98.390625 162.109375 C 98.390625 164.117188 99.863281 165.734375 101.695312 165.734375 L 139.699219 165.734375 C 141.53125 165.734375 143.003906 164.117188 143.003906 162.109375 L 143.003906 139.121094 C 143.003906 137.113281 141.53125 135.5 139.699219 135.5 L 137.648438 135.5 " fill-opacity="1" fill-rule="nonzero"/><path fill="#f14b5f" d="M 143.003906 144.25 L 121.457031 165.734375 L 126.613281 165.734375 L 143.003906 149.390625 Z M 127.292969 135.5 L 98.816406 163.890625 C 99.382812 164.992188 100.457031 165.734375 101.695312 165.734375 L 106 165.734375 L 136.324219 135.5 L 127.292969 135.5 " fill-opacity="1" fill-rule="nonzero"/><path fill="#ef394a" d="M 112.789062 158.964844 C 109.519531 159.777344 106.132812 160.105469 102.769531 159.953125 L 98.816406 163.890625 C 98.851562 163.960938 98.886719 164.027344 98.925781 164.089844 C 98.925781 164.09375 98.929688 164.09375 98.929688 164.097656 C 99.007812 164.226562 99.09375 164.351562 99.183594 164.46875 C 99.1875 164.46875 99.1875 164.472656 99.1875 164.476562 C 99.234375 164.535156 99.28125 164.589844 99.332031 164.644531 C 99.429688 164.753906 99.535156 164.855469 99.644531 164.953125 C 99.648438 164.957031 99.652344 164.960938 99.65625 164.964844 C 99.710938 165.011719 99.765625 165.054688 99.820312 165.097656 C 99.882812 165.144531 99.941406 165.1875 100.003906 165.226562 C 100.0625 165.261719 100.117188 165.296875 100.175781 165.328125 C 100.1875 165.335938 100.199219 165.34375 100.210938 165.351562 C 100.261719 165.378906 100.316406 165.40625 100.367188 165.429688 C 100.375 165.4375 100.386719 165.441406 100.394531 165.445312 C 100.457031 165.472656 100.519531 165.5 100.582031 165.523438 C 100.59375 165.527344 100.609375 165.535156 100.621094 165.539062 C 100.671875 165.558594 100.722656 165.574219 100.773438 165.589844 C 100.789062 165.597656 100.808594 165.601562 100.828125 165.609375 C 100.882812 165.625 100.941406 165.640625 100.996094 165.652344 C 101.003906 165.65625 101.015625 165.65625 101.023438 165.660156 C 101.089844 165.675781 101.15625 165.6875 101.222656 165.699219 C 101.238281 165.699219 101.257812 165.703125 101.273438 165.703125 C 101.328125 165.710938 101.378906 165.71875 101.433594 165.722656 C 101.453125 165.722656 101.46875 165.726562 101.484375 165.726562 C 101.554688 165.730469 101.625 165.734375 101.695312 165.734375 L 106 165.734375 Z M 143.003906 144.25 L 121.457031 165.734375 L 126.613281 165.734375 L 143.003906 149.390625 L 143.003906 144.25 " fill-opacity="1" fill-rule="nonzero"/><path fill="#545ea1" d="M 200.15625 135.5 C 198.480469 140.484375 195.792969 145.128906 192.292969 149.058594 C 187.238281 154.734375 180.488281 158.886719 173.136719 160.851562 C 169.390625 161.851562 165.496094 162.28125 161.621094 162.144531 C 161.636719 164.136719 163.105469 165.734375 164.925781 165.734375 L 202.929688 165.734375 C 204.761719 165.734375 206.234375 164.117188 206.234375 162.109375 L 206.234375 139.121094 C 206.234375 137.113281 204.761719 135.5 202.929688 135.5 L 200.15625 135.5 " fill-opacity="1" fill-rule="nonzero"/><path fill="#989cca" d="M 206.234375 140.300781 L 180.722656 165.734375 L 185.875 165.734375 L 206.234375 145.4375 Z M 186.558594 135.5 L 161.621094 160.363281 L 161.621094 162.109375 C 161.621094 164.117188 163.09375 165.734375 164.925781 165.734375 L 165.261719 165.734375 L 195.589844 135.5 L 186.558594 135.5 " fill-opacity="1" fill-rule="nonzero"/><path fill="#8086bf" d="M 169.347656 161.660156 C 166.796875 162.074219 164.203125 162.238281 161.621094 162.144531 C 161.621094 162.207031 161.625 162.269531 161.628906 162.328125 C 161.628906 162.335938 161.628906 162.339844 161.628906 162.347656 C 161.632812 162.402344 161.636719 162.457031 161.640625 162.511719 C 161.640625 162.515625 161.644531 162.523438 161.644531 162.53125 C 161.648438 162.585938 161.65625 162.640625 161.664062 162.695312 C 161.679688 162.8125 161.703125 162.929688 161.730469 163.046875 C 161.757812 163.160156 161.789062 163.273438 161.828125 163.382812 C 161.847656 163.4375 161.867188 163.492188 161.886719 163.546875 C 161.953125 163.707031 162.027344 163.863281 162.109375 164.011719 C 162.136719 164.058594 162.164062 164.109375 162.195312 164.15625 C 162.253906 164.253906 162.316406 164.34375 162.382812 164.433594 C 162.417969 164.476562 162.449219 164.519531 162.484375 164.5625 C 162.492188 164.566406 162.496094 164.574219 162.503906 164.582031 C 162.535156 164.617188 162.566406 164.652344 162.597656 164.6875 C 162.597656 164.6875 162.601562 164.691406 162.605469 164.695312 C 162.636719 164.730469 162.671875 164.765625 162.710938 164.804688 C 162.71875 164.8125 162.726562 164.820312 162.738281 164.828125 C 162.765625 164.859375 162.796875 164.890625 162.828125 164.917969 C 162.832031 164.917969 162.835938 164.921875 162.835938 164.921875 C 162.875 164.957031 162.914062 164.992188 162.953125 165.023438 C 162.957031 165.027344 162.960938 165.027344 162.964844 165.03125 C 163.003906 165.0625 163.042969 165.09375 163.082031 165.125 C 163.089844 165.128906 163.09375 165.132812 163.101562 165.136719 C 163.140625 165.164062 163.179688 165.191406 163.21875 165.21875 C 163.222656 165.21875 163.226562 165.222656 163.234375 165.226562 C 163.273438 165.25 163.3125 165.277344 163.351562 165.300781 C 163.367188 165.3125 163.382812 165.320312 163.398438 165.328125 C 163.429688 165.34375 163.460938 165.363281 163.496094 165.378906 C 163.515625 165.390625 163.535156 165.402344 163.558594 165.414062 C 163.585938 165.425781 163.613281 165.441406 163.640625 165.453125 C 163.671875 165.46875 163.707031 165.480469 163.742188 165.496094 C 163.757812 165.503906 163.773438 165.507812 163.789062 165.515625 C 163.824219 165.53125 163.867188 165.542969 163.902344 165.558594 C 163.917969 165.5625 163.929688 165.566406 163.941406 165.574219 C 163.980469 165.585938 164.019531 165.597656 164.058594 165.609375 C 164.074219 165.613281 164.085938 165.617188 164.097656 165.621094 C 164.125 165.628906 164.148438 165.632812 164.175781 165.640625 C 164.203125 165.648438 164.230469 165.65625 164.261719 165.660156 C 164.28125 165.664062 164.300781 165.667969 164.320312 165.671875 C 164.351562 165.679688 164.386719 165.6875 164.417969 165.691406 C 164.464844 165.699219 164.511719 165.707031 164.554688 165.710938 C 164.566406 165.714844 164.574219 165.714844 164.585938 165.714844 C 164.613281 165.71875 164.640625 165.71875 164.671875 165.722656 C 164.699219 165.726562 164.726562 165.726562 164.753906 165.730469 C 164.8125 165.730469 164.867188 165.734375 164.925781 165.734375 L 165.261719 165.734375 Z M 206.234375 140.300781 L 180.722656 165.734375 L 185.875 165.734375 L 206.234375 145.4375 L 206.234375 140.300781 " fill-opacity="1" fill-rule="nonzero"/><g fill="#f14b5f" fill-opacity="1"><g transform="translate(218.935464, 206.138852)"><g><path d="M 7.65625 0.296875 C 6.476562 0.296875 5.492188 -0.0820312 4.703125 -0.84375 C 3.921875 -1.613281 3.53125 -2.507812 3.53125 -3.53125 L 3.53125 -25.90625 C 3.53125 -26.925781 3.921875 -27.816406 4.703125 -28.578125 C 5.492188 -29.347656 6.476562 -29.734375 7.65625 -29.734375 C 8.394531 -29.734375 9.03125 -29.578125 9.5625 -29.265625 C 10.09375 -28.953125 10.515625 -28.617188 10.828125 -28.265625 C 11.222656 -27.828125 11.539062 -27.332031 11.78125 -26.78125 L 12.359375 -26.78125 C 12.796875 -27.445312 13.347656 -28.035156 14.015625 -28.546875 C 14.566406 -28.984375 15.289062 -29.390625 16.1875 -29.765625 C 17.09375 -30.140625 18.171875 -30.328125 19.421875 -30.328125 C 20.679688 -30.328125 21.78125 -30.109375 22.71875 -29.671875 C 23.664062 -29.242188 24.472656 -28.773438 25.140625 -28.265625 C 25.890625 -27.628906 26.535156 -26.941406 27.078125 -26.203125 L 27.671875 -26.203125 C 28.296875 -26.941406 29.019531 -27.628906 29.84375 -28.265625 C 30.550781 -28.773438 31.4375 -29.242188 32.5 -29.671875 C 33.5625 -30.109375 34.796875 -30.328125 36.203125 -30.328125 C 37.734375 -30.328125 39.164062 -30.039062 40.5 -29.46875 C 41.832031 -28.894531 42.988281 -28.097656 43.96875 -27.078125 C 44.957031 -26.054688 45.722656 -24.816406 46.265625 -23.359375 C 46.816406 -21.910156 47.09375 -20.304688 47.09375 -18.546875 L 47.09375 -3.53125 C 47.09375 -2.507812 46.703125 -1.613281 45.921875 -0.84375 C 45.140625 -0.0820312 44.160156 0.296875 42.984375 0.296875 C 41.804688 0.296875 40.820312 -0.0820312 40.03125 -0.84375 C 39.25 -1.613281 38.859375 -2.507812 38.859375 -3.53125 L 38.859375 -18.546875 C 38.859375 -19.878906 38.40625 -20.992188 37.5 -21.890625 C 36.601562 -22.796875 35.484375 -23.25 34.140625 -23.25 C 32.804688 -23.25 31.6875 -22.796875 30.78125 -21.890625 C 29.882812 -20.992188 29.4375 -19.878906 29.4375 -18.546875 L 29.4375 -3.53125 C 29.4375 -2.507812 29.039062 -1.613281 28.25 -0.84375 C 27.46875 -0.0820312 26.488281 0.296875 25.3125 0.296875 C 24.132812 0.296875 23.148438 -0.0820312 22.359375 -0.84375 C 21.578125 -1.613281 21.1875 -2.507812 21.1875 -3.53125 L 21.1875 -18.546875 C 21.1875 -19.878906 20.734375 -20.992188 19.828125 -21.890625 C 18.929688 -22.796875 17.816406 -23.25 16.484375 -23.25 C 15.148438 -23.25 14.03125 -22.796875 13.125 -21.890625 C 12.226562 -20.992188 11.78125 -19.878906 11.78125 -18.546875 L 11.78125 -3.53125 C 11.78125 -2.507812 11.382812 -1.613281 10.59375 -0.84375 C 9.8125 -0.0820312 8.832031 0.296875 7.65625 0.296875 Z M 7.65625 0.296875 "/></g></g></g><g fill="#f14b5f" fill-opacity="1"><g transform="translate(268.092554, 206.138852)"><g><path d="M 16.78125 0.890625 C 14.695312 0.890625 12.789062 0.546875 11.0625 -0.140625 C 9.34375 -0.828125 7.863281 -1.75 6.625 -2.90625 C 5.382812 -4.070312 4.410156 -5.421875 3.703125 -6.953125 C 3.003906 -8.484375 2.65625 -10.09375 2.65625 -11.78125 L 2.65625 -17.65625 C 2.65625 -19.34375 3.003906 -20.953125 3.703125 -22.484375 C 4.410156 -24.015625 5.382812 -25.359375 6.625 -26.515625 C 7.863281 -27.679688 9.34375 -28.609375 11.0625 -29.296875 C 12.789062 -29.984375 14.695312 -30.328125 16.78125 -30.328125 C 18.820312 -30.328125 20.710938 -29.984375 22.453125 -29.296875 C 24.203125 -28.609375 25.695312 -27.679688 26.9375 -26.515625 C 28.175781 -25.359375 29.144531 -24.015625 29.84375 -22.484375 C 30.550781 -20.953125 30.90625 -19.34375 30.90625 -17.65625 L 30.90625 -11.78125 C 30.90625 -10.09375 30.550781 -8.484375 29.84375 -6.953125 C 29.144531 -5.421875 28.175781 -4.070312 26.9375 -2.90625 C 25.695312 -1.75 24.203125 -0.828125 22.453125 -0.140625 C 20.710938 0.546875 18.820312 0.890625 16.78125 0.890625 Z M 16.78125 -6.1875 C 18.539062 -6.1875 19.960938 -6.703125 21.046875 -7.734375 C 22.128906 -8.773438 22.671875 -10.125 22.671875 -11.78125 L 22.671875 -17.65625 C 22.671875 -19.3125 22.128906 -20.65625 21.046875 -21.6875 C 19.960938 -22.726562 18.539062 -23.25 16.78125 -23.25 C 15.007812 -23.25 13.582031 -22.726562 12.5 -21.6875 C 11.425781 -20.65625 10.890625 -19.3125 10.890625 -17.65625 L 10.890625 -11.78125 C 10.890625 -10.125 11.425781 -8.773438 12.5 -7.734375 C 13.582031 -6.703125 15.007812 -6.1875 16.78125 -6.1875 Z M 16.78125 -6.1875 "/></g></g></g><g fill="#f14b5f" fill-opacity="1"><g transform="translate(300.471417, 206.138852)"><g><path d="M 16.78125 0.890625 C 14.695312 0.890625 12.789062 0.546875 11.0625 -0.140625 C 9.34375 -0.828125 7.863281 -1.75 6.625 -2.90625 C 5.382812 -4.070312 4.410156 -5.421875 3.703125 -6.953125 C 3.003906 -8.484375 2.65625 -10.09375 2.65625 -11.78125 L 2.65625 -17.65625 C 2.65625 -19.34375 3.003906 -20.953125 3.703125 -22.484375 C 4.410156 -24.015625 5.382812 -25.359375 6.625 -26.515625 C 7.863281 -27.679688 9.34375 -28.609375 11.0625 -29.296875 C 12.789062 -29.984375 14.695312 -30.328125 16.78125 -30.328125 C 18.820312 -30.328125 20.710938 -29.984375 22.453125 -29.296875 C 24.203125 -28.609375 25.695312 -27.679688 26.9375 -26.515625 C 28.175781 -25.359375 29.144531 -24.015625 29.84375 -22.484375 C 30.550781 -20.953125 30.90625 -19.34375 30.90625 -17.65625 L 30.90625 -11.78125 C 30.90625 -10.09375 30.550781 -8.484375 29.84375 -6.953125 C 29.144531 -5.421875 28.175781 -4.070312 26.9375 -2.90625 C 25.695312 -1.75 24.203125 -0.828125 22.453125 -0.140625 C 20.710938 0.546875 18.820312 0.890625 16.78125 0.890625 Z M 16.78125 -6.1875 C 18.539062 -6.1875 19.960938 -6.703125 21.046875 -7.734375 C 22.128906 -8.773438 22.671875 -10.125 22.671875 -11.78125 L 22.671875 -17.65625 C 22.671875 -19.3125 22.128906 -20.65625 21.046875 -21.6875 C 19.960938 -22.726562 18.539062 -23.25 16.78125 -23.25 C 15.007812 -23.25 13.582031 -22.726562 12.5 -21.6875 C 11.425781 -20.65625 10.890625 -19.3125 10.890625 -17.65625 L 10.890625 -11.78125 C 10.890625 -10.125 11.425781 -8.773438 12.5 -7.734375 C 13.582031 -6.703125 15.007812 -6.1875 16.78125 -6.1875 Z M 16.78125 -6.1875 "/></g></g></g><g fill="#242424" fill-opacity="1"><g transform="translate(218.935464, 258.921335)"><g><path d="M 15.609375 0.890625 C 13.953125 0.890625 12.660156 0.507812 11.734375 -0.25 C 10.816406 -1.019531 10.144531 -1.914062 9.71875 -2.9375 L 1.765625 -22.375 C 1.609375 -22.769531 1.453125 -23.179688 1.296875 -23.609375 C 1.179688 -23.960938 1.082031 -24.332031 1 -24.71875 C 0.925781 -25.113281 0.890625 -25.507812 0.890625 -25.90625 C 0.890625 -26.925781 1.28125 -27.816406 2.0625 -28.578125 C 2.84375 -29.347656 3.820312 -29.734375 5 -29.734375 C 6.175781 -29.734375 7.117188 -29.398438 7.828125 -28.734375 C 8.535156 -28.066406 9.066406 -27.222656 9.421875 -26.203125 L 15.3125 -10.296875 L 15.890625 -10.296875 L 21.78125 -26.203125 C 22.132812 -27.222656 22.664062 -28.066406 23.375 -28.734375 C 24.082031 -29.398438 25.023438 -29.734375 26.203125 -29.734375 C 27.378906 -29.734375 28.359375 -29.347656 29.140625 -28.578125 C 29.929688 -27.816406 30.328125 -26.925781 30.328125 -25.90625 C 30.328125 -25.507812 30.273438 -25.113281 30.171875 -24.71875 C 30.078125 -24.332031 29.96875 -23.960938 29.84375 -23.609375 L 29.4375 -22.375 L 21.484375 -2.9375 C 21.054688 -1.914062 20.378906 -1.019531 19.453125 -0.25 C 18.535156 0.507812 17.253906 0.890625 15.609375 0.890625 Z M 15.609375 0.890625 "/></g></g></g><g fill="#242424" fill-opacity="1"><g transform="translate(248.959489, 258.921335)"><g><path d="M 7.953125 0.296875 C 6.773438 0.296875 5.789062 -0.0820312 5 -0.84375 C 4.21875 -1.613281 3.828125 -2.507812 3.828125 -3.53125 L 3.828125 -25.90625 C 3.828125 -26.925781 4.21875 -27.816406 5 -28.578125 C 5.789062 -29.347656 6.773438 -29.734375 7.953125 -29.734375 C 9.128906 -29.734375 10.109375 -29.347656 10.890625 -28.578125 C 11.671875 -27.816406 12.0625 -26.925781 12.0625 -25.90625 L 12.0625 -3.53125 C 12.0625 -2.507812 11.671875 -1.613281 10.890625 -0.84375 C 10.109375 -0.0820312 9.128906 0.296875 7.953125 0.296875 Z M 7.953125 -34.140625 C 6.617188 -34.140625 5.546875 -34.53125 4.734375 -35.3125 C 3.929688 -36.101562 3.53125 -37.085938 3.53125 -38.265625 C 3.53125 -39.441406 3.929688 -40.421875 4.734375 -41.203125 C 5.546875 -41.992188 6.617188 -42.390625 7.953125 -42.390625 C 9.285156 -42.390625 10.351562 -41.992188 11.15625 -41.203125 C 11.957031 -40.421875 12.359375 -39.441406 12.359375 -38.265625 C 12.359375 -37.085938 11.945312 -36.101562 11.125 -35.3125 C 10.300781 -34.53125 9.242188 -34.140625 7.953125 -34.140625 Z M 7.953125 -34.140625 "/></g></g></g><g fill="#242424" fill-opacity="1"><g transform="translate(263.677067, 258.921335)"><g><path d="M 16.78125 0.890625 C 14.695312 0.890625 12.789062 0.546875 11.0625 -0.140625 C 9.34375 -0.828125 7.863281 -1.75 6.625 -2.90625 C 5.382812 -4.070312 4.410156 -5.421875 3.703125 -6.953125 C 3.003906 -8.484375 2.65625 -10.09375 2.65625 -11.78125 L 2.65625 -17.65625 C 2.65625 -19.34375 2.992188 -20.953125 3.671875 -22.484375 C 4.359375 -24.015625 5.320312 -25.359375 6.5625 -26.515625 C 7.800781 -27.679688 9.265625 -28.609375 10.953125 -29.296875 C 12.640625 -29.984375 14.484375 -30.328125 16.484375 -30.328125 C 18.484375 -30.328125 20.328125 -29.984375 22.015625 -29.296875 C 23.703125 -28.609375 25.164062 -27.679688 26.40625 -26.515625 C 27.644531 -25.359375 28.609375 -24.015625 29.296875 -22.484375 C 29.984375 -20.953125 30.328125 -19.34375 30.328125 -17.65625 L 30.328125 -15.609375 C 30.328125 -14.585938 29.929688 -13.691406 29.140625 -12.921875 C 28.359375 -12.160156 27.378906 -11.78125 26.203125 -11.78125 L 10.890625 -11.78125 C 10.890625 -10.125 11.425781 -8.773438 12.5 -7.734375 C 13.582031 -6.703125 15.007812 -6.1875 16.78125 -6.1875 C 18.113281 -6.1875 19.179688 -6.320312 19.984375 -6.59375 C 20.785156 -6.863281 21.484375 -7.164062 22.078125 -7.5 C 22.671875 -7.832031 23.21875 -8.132812 23.71875 -8.40625 C 24.226562 -8.6875 24.859375 -8.828125 25.609375 -8.828125 C 26.628906 -8.828125 27.472656 -8.515625 28.140625 -7.890625 C 28.804688 -7.265625 29.140625 -6.5 29.140625 -5.59375 C 29.140625 -4.925781 28.894531 -4.21875 28.40625 -3.46875 C 27.914062 -2.726562 27.171875 -2.03125 26.171875 -1.375 C 25.171875 -0.726562 23.882812 -0.191406 22.3125 0.234375 C 20.738281 0.671875 18.894531 0.890625 16.78125 0.890625 Z M 22.078125 -17.953125 C 22.078125 -19.441406 21.554688 -20.695312 20.515625 -21.71875 C 19.472656 -22.738281 18.128906 -23.25 16.484375 -23.25 C 14.835938 -23.25 13.492188 -22.738281 12.453125 -21.71875 C 11.410156 -20.695312 10.890625 -19.441406 10.890625 -17.953125 Z M 22.078125 -17.953125 "/></g></g></g><g fill="#242424" fill-opacity="1"><g transform="translate(295.172873, 258.921335)"><g><path d="M 13.828125 0.890625 C 11.984375 0.890625 10.285156 0.648438 8.734375 0.171875 C 7.191406 -0.296875 5.859375 -0.890625 4.734375 -1.609375 C 3.617188 -2.335938 2.742188 -3.15625 2.109375 -4.0625 C 1.484375 -4.96875 1.171875 -5.867188 1.171875 -6.765625 C 1.171875 -7.671875 1.503906 -8.4375 2.171875 -9.0625 C 2.835938 -9.695312 3.679688 -10.015625 4.703125 -10.015625 C 5.566406 -10.015625 6.300781 -9.785156 6.90625 -9.328125 C 7.519531 -8.878906 8.128906 -8.367188 8.734375 -7.796875 C 9.347656 -7.234375 10.035156 -6.722656 10.796875 -6.265625 C 11.566406 -5.816406 12.578125 -5.59375 13.828125 -5.59375 C 15.597656 -5.59375 16.875 -5.894531 17.65625 -6.5 C 18.445312 -7.113281 18.84375 -7.789062 18.84375 -8.53125 C 18.84375 -9.320312 18.421875 -9.929688 17.578125 -10.359375 C 16.734375 -10.796875 15.679688 -11.171875 14.421875 -11.484375 C 13.171875 -11.796875 11.796875 -12.132812 10.296875 -12.5 C 8.804688 -12.875 7.429688 -13.382812 6.171875 -14.03125 C 4.921875 -14.6875 3.875 -15.550781 3.03125 -16.625 C 2.1875 -17.707031 1.765625 -19.132812 1.765625 -20.90625 C 1.765625 -22.15625 2.039062 -23.347656 2.59375 -24.484375 C 3.144531 -25.628906 3.9375 -26.632812 4.96875 -27.5 C 6.007812 -28.363281 7.296875 -29.050781 8.828125 -29.5625 C 10.359375 -30.070312 12.125 -30.328125 14.125 -30.328125 C 16.050781 -30.328125 17.757812 -30.078125 19.25 -29.578125 C 20.738281 -29.085938 21.992188 -28.488281 23.015625 -27.78125 C 24.035156 -27.082031 24.820312 -26.316406 25.375 -25.484375 C 25.925781 -24.660156 26.203125 -23.914062 26.203125 -23.25 C 26.203125 -22.351562 25.867188 -21.585938 25.203125 -20.953125 C 24.535156 -20.328125 23.691406 -20.015625 22.671875 -20.015625 C 21.765625 -20.015625 21.035156 -20.207031 20.484375 -20.59375 C 19.941406 -20.988281 19.394531 -21.429688 18.84375 -21.921875 C 18.289062 -22.421875 17.660156 -22.863281 16.953125 -23.25 C 16.242188 -23.644531 15.300781 -23.84375 14.125 -23.84375 C 12.632812 -23.84375 11.578125 -23.585938 10.953125 -23.078125 C 10.328125 -22.566406 10.015625 -21.9375 10.015625 -21.1875 C 10.015625 -20.40625 10.4375 -19.796875 11.28125 -19.359375 C 12.125 -18.929688 13.171875 -18.5625 14.421875 -18.25 C 15.679688 -17.9375 17.054688 -17.59375 18.546875 -17.21875 C 20.035156 -16.84375 21.40625 -16.332031 22.65625 -15.6875 C 23.914062 -15.039062 24.96875 -14.175781 25.8125 -13.09375 C 26.65625 -12.019531 27.078125 -10.597656 27.078125 -8.828125 C 27.078125 -7.578125 26.78125 -6.367188 26.1875 -5.203125 C 25.601562 -4.046875 24.75 -3.015625 23.625 -2.109375 C 22.507812 -1.210938 21.128906 -0.488281 19.484375 0.0625 C 17.835938 0.613281 15.953125 0.890625 13.828125 0.890625 Z M 13.828125 0.890625 "/></g></g></g></svg>